<?xml version="1.0" encoding="utf-8"?>
<!-- Generator: Adobe Illustrator 16.0.4, SVG Export Plug-In . SVG Version: 6.00 Build 0)  -->
<!DOCTYPE svg PUBLIC "-//W3C//DTD SVG 1.1//EN" "http://www.w3.org/Graphics/SVG/1.1/DTD/svg11.dtd">
<svg version="1.1" id="Layer_1" xmlns="http://www.w3.org/2000/svg" xmlns:xlink="http://www.w3.org/1999/xlink" x="0px" y="0px"
	 width="612px" height="792px" viewBox="0 0 612 792" enable-background="new 0 0 612 792" xml:space="preserve">
<g>
	<path fill="#50C0AF" d="M364.05,324.52c1.095-0.722,2.214-1.382,3.244-2.194c8.211-6.486,13.309-14.618,13.639-21.746
		c0.184-3.944-1.075-7.331-3.7-9.816c-7.067-6.711-23.209-3.961-35.495,5.758c-4.149,3.292-7.487,6.994-9.841,10.778
		c-2.349-3.779-5.693-7.492-9.824-10.769c-12.312-9.718-28.497-12.502-35.528-5.759c-2.613,2.478-3.868,5.873-3.697,9.814
		c0.336,7.127,5.446,15.261,13.646,21.749c1.025,0.814,2.156,1.473,3.225,2.193h-62.581v30.2h13.147v42.576h-59.456
		c-2.128,0-3.826,1.722-3.826,3.842v104.681c0,2.119,1.714,3.835,3.826,3.835h59.456h69.409H344.1h13.802h55.595v-69.4v-24.422
		V354.72h13.151v-30.2H364.05L364.05,324.52z M418.987,347.062h-5.491h-69.403h-24.431h-69.396h-5.493v-14.872h174.209v14.872
		H418.987z M405.835,502.001h-44.101v-61.732h44.101V502.001z M327.334,502.001h-3.819h-3.838h-61.732h-3.825h-3.827h-55.637V432.55
		l55.637,36.777l3.827,2.532l3.825,2.542l14.302,9.45c0.637,0.418,1.395,0.633,2.125,0.633c0.733,0,1.478-0.215,2.119-0.633
		l43.202-28.565l3.822-2.532l3.838-2.529l9.084-6.01l3.835-2.535l2.118-1.393l1.71-1.14l4.098-2.694l5.812-3.834h0.065v3.834v3.821
		v61.738h-9.951h-3.832h-3.827h-9.13V502.001z M361.721,423.519h44.114v9.083h-44.114V423.519z M336.437,397.299h-9.103V354.72
		h9.103V397.299z M257.944,354.72h61.748v42.579h-61.748V354.72z M257.944,404.956h61.748h3.822h3.819h9.11h3.827h3.828h9.961
		v10.883v3.834v3.676l-0.246,0.17l-4.214,2.789l-5.491,3.636l-3.818,2.552l-0.172,0.106l-3.67,2.417l-2.138,1.415l-5.8,3.835
		l-1.159,0.76l-3.831,2.542l-3.829,2.528l-45.321,29.967l-16.418-10.849l-3.827-2.537l-3.825-2.524l-51.167-33.835l-4.472-2.961
		v-18.396h55.639h3.825L257.944,404.956L257.944,404.956z M405.835,415.839h-44.101v-14.721c0-2.113-1.733-3.827-3.833-3.827H344.1
		v-42.583h61.735V415.839z M346.485,302.531c6.234-4.941,13.745-7.99,19.596-7.99c1.825,0,4.332,0.31,5.874,1.768
		c0.988,0.93,1.405,2.211,1.336,3.913c-0.222,4.793-4.454,11.111-10.751,16.102c-9.022,7.136-21.536,9.908-25.481,6.193
		c-0.969-0.934-1.404-2.211-1.324-3.908C335.964,313.81,340.178,307.505,346.485,302.531z M290.481,300.222
		c-0.082-1.702,0.355-2.989,1.342-3.913c1.196-1.161,3.232-1.768,5.851-1.768c5.865,0,13.392,3.049,19.637,7.99
		c6.294,4.983,10.495,11.278,10.74,16.063c0.062,1.702-0.387,2.983-1.367,3.908c-1.538,1.474-4.072,1.786-5.888,1.786
		c-5.847,0-13.354-3.062-19.561-7.966C294.925,311.333,290.703,305.015,290.481,300.222z"/>
	<path fill="#50C0AF" d="M248.043,426.308c-0.301,1.176-0.497,2.379-0.497,3.636c0,1.635,0.265,3.202,0.733,4.682
		c0.334,1.519,1.084,3.101,2.021,4.688c0.188,0.316,0.494,0.638,0.695,0.956c0.913,1.38,1.92,2.752,3.141,4.11
		c1.201,1.381,2.476,2.702,3.827,3.987c7.467,7.058,16.423,12.687,16.423,12.687s16.551-10.479,23.357-20.778
		c0.843-1.303,1.476-2.561,1.95-3.821c0.214-0.613,0.625-1.227,0.756-1.828c0.191-0.634,0.191-1.34,0.318-2.009
		c0.17-0.883,0.423-1.736,0.423-2.666c0-1.259-0.194-2.467-0.492-3.63c-0.235-0.995-0.639-1.896-1.063-2.802
		c-0.671-1.403-1.5-2.694-2.557-3.834c-1.093-1.158-2.296-2.2-3.73-2.999c-0.932-0.512-2.127-0.498-3.184-0.826
		c-1.346-0.387-2.599-1.054-4.102-1.054c-1.667,0-3.163,0.553-4.65,1.054c-2.418,0.796-4.545,2.028-6.243,3.825h-1.517
		c-1.711-1.797-3.85-3.029-6.239-3.825c-1.503-0.495-2.996-1.054-4.667-1.054c-1.502,0-2.747,0.667-4.112,1.054h-0.631v0.163
		c-0.84,0.289-1.822,0.241-2.574,0.663c-0.467,0.246-0.83,0.619-1.253,0.924c-1.499,1.05-2.803,2.316-3.829,3.803
		C249.255,422.879,248.5,424.519,248.043,426.308z"/>
</g>
</svg>
